<svg xmlns="http://www.w3.org/2000/svg" xmlns:xlink="http://www.w3.org/1999/xlink" version="1.1" viewBox="0 0 75 110">
	<style>
		text { font-family: Verdana, Arial, sans-serif; }
		text.calibri { font-family: Calibri, Arial, sans-serif; }
		tspan.active { font-size: 5.644px; font-weight: bold; }
	</style>
	<defs>
		<g id="EU-star">
			<g id="c">
				<path id="t" d="M 0,0 v 1 h 0.5 z" transform="translate(0,-1) rotate(18)" />
				<use xlink:href="#t" transform="scale(-1,1)" />
			</g>
			<use xlink:href="#c" transform="rotate(72)" />
			<use xlink:href="#c" transform="rotate(144)" />
			<use xlink:href="#c" transform="rotate(216)" />
			<use xlink:href="#c" transform="rotate(288)" />
		</g>
		<rect id="p" width="1" height="1" fill="black" />
		<g id="snowflake">
			<circle r="1" />
			<g id="a" fill="white" stroke="black" stroke-width="0.4">
				<path d="M 3.2,1 L 2.2,0 3.2,-1" />
				<path d="M 0,0 H 3.5" />
			</g>
			<use xlink:href="#a" transform="rotate(60)" />
			<use xlink:href="#a" transform="rotate(120)" />
			<use xlink:href="#a" transform="rotate(180)" />
			<use xlink:href="#a" transform="rotate(240)" />
			<use xlink:href="#a" transform="rotate(300)" />
		</g>
		<g id="tire">
			<path fill="black" stroke="none" d="M 2.984375,-11.720703 C 1.3359693,-11.720703 0,-9.1279645 0,-5.9296875 c 0,3.1982771 1.3359693,5.79101562 2.984375,5.79101562 h 3.5039062 c 1.6484058,10e-9 2.9843748,-2.59273852 2.9843748,-5.79101562 0,-3.198277 -1.335969,-5.7910155 -2.9843748,-5.7910155 z m 3.9375,1.662109 c 0.9168098,0 1.660156,1.7920797 1.660156,4.0039065 0,2.2118268 -0.7433462,4.0058594 -1.660156,4.0058594 -0.9168098,0 -1.6601562,-1.7940326 -1.6601562,-4.0058594 -2e-7,-2.2118268 0.7433464,-4.0039065 1.6601562,-4.0039065 z m -0.1484375,0.2597659 c -0.4305744,0 -0.8117504,0.5268808 -1.0703125,1.3398437 l 0.029297,-0.050781 c 0.5060049,0 0.9160156,1.3174885 0.9160156,2.6699218 0,1.324416 -0.3934564,2.3967166 -0.8847656,2.4414063 0.2561307,0.704485 0.6129659,1.1445313 1.0097656,1.1445313 0.7797514,0 1.4121095,-1.6878258 1.4121095,-3.7714844 0,-2.0836586 -0.6323581,-3.7734375 -1.4121096,-3.7734377 z" />
			<path fill="none" stroke="white" stroke-width="0.1215" d="m 3.1790138,-6.5253548 -0.8456876,-0.06038 m 0.8271662,1.0883181 -0.8768036,-0.037043 m 0.9390355,0.9868208 -0.8686541,-0.053342 M 3.3242217,-3.782705 2.4889061,-3.823452 m 1.0279382,0.9175506 -0.8497623,-0.055194 m 1.0823912,0.6463972 -0.8430946,-0.039636 m 1.078687,0.603798 -0.8931024,-0.071863 m 1.1579585,0.5504563 H 3.3890466 m 1.134992,0.39487649 -0.8386495,0.0222257 m 1.1709236,0.32782895 -0.8453172,0.0174101 M 3.3023664,-7.6729414 2.4314897,-7.6973896 M 3.4590575,-8.5064048 H 2.6381886 m 1.0523865,-0.737893 -0.8905093,0.014076 M 3.861713,-9.787716 H 3.0449188 m 1.0835025,-0.457849 H 3.252729 m 1.9251154,9.9860032 -0.7856782,0.0307455 M 4.3540121,-10.625625 h -0.866802 m 1.1327694,-0.357833 H 3.7579931 m 1.111655,-0.283748 -0.846058,-0.01741 m 1.2072255,-0.257818 -0.8768035,0.0074 M 6.0797268,0.02518954 c -1.6269207,0 -2.9167516,-2.66041534 -2.9167516,-5.89277184 0,-3.2323564 1.3187243,-5.9383347 2.945645,-5.9383347 M 5.2036641,4.224e-7 c -1.6269206,0 -2.9167516,-2.6607857224 -2.9167516,-5.8931422224 0,-3.2323565 1.3187244,-5.9379642 2.945645,-5.9379642 m 1.5858031,11.7672446 c -1.666186,0 -2.9604622,-2.6052215 -2.9604622,-5.837578 0,-3.231986 1.2320442,-5.8446166 2.8982303,-5.8446166 m -5.1147261,5.1870293 -0.8801374,-0.06038 m 0.8608751,1.0883181 -0.9123646,-0.037043 M 1.6869653,-4.581681 0.7831205,-4.634652 m 1.0090464,0.8182759 -0.8690246,-0.040747 m 1.0697967,0.9175506 -0.8842122,-0.055194 m 1.1264722,0.6463972 -0.8775444,-0.039636 m 1.1227679,0.603798 -0.9297748,-0.072234 M 2.7560211,-1.305614 H 1.8599552 m 1.1812956,0.39487649 -0.8730993,0.0222257 m 1.2187088,0.32745852 -0.879767,0.0174101 M 1.7695708,-7.7066133 0.8631329,-7.7310613 m 1.0694263,-0.8090152 h -0.853837 m 1.0949857,-0.737893 -0.9264409,0.014076 m 1.1046169,-0.557124 H 1.5017512 M 2.629705,-10.279237 H 1.7180812 m 2.0036462,9.9860033 -0.8175351,0.0303751 M 2.8641861,-10.659296 H 1.9621934 M 3.140896,-11.01713 H 2.2437189 m 1.1572177,-0.283748 -0.8805079,-0.01741 m 1.256122,-0.257818 -0.9123646,0.0078 m 1.7960598,11.55967544 c -1.6932273,0 -3.0356591,-2.66041534 -3.0356591,-5.89277184 0,-3.2323564 1.3728069,-5.9379636 3.0660342,-5.9379636 M 3.7482517,-0.03419011 c -1.6928569,0 -3.0352887,-2.66041529 -3.0352887,-5.89240139 0,-3.2323565 1.3724365,-5.9383345 3.0656638,-5.9383345" />
		</g>
	</defs>
	<rect width="75" height="110" fill="white" />
	<g id="header" transform="translate(3,3)">
		<g id="EU-flag">
			<rect width="16" height="11" fill="#0033ff" />
			<g fill="#ffff00" transform="scale(0.6) translate(13.5,9)">
				<use xlink:href="#EU-star" y="6"/>
				<use xlink:href="#EU-star" transform="rotate(30) translate(0,6) rotate(330)"/>
				<use xlink:href="#EU-star" transform="rotate(60) translate(0,6) rotate(300)"/>
				<use xlink:href="#EU-star" x="-6"/>
				<use xlink:href="#EU-star" transform="rotate(120) translate(0,6) rotate(240)"/>
				<use xlink:href="#EU-star" transform="rotate(150) translate(0,6) rotate(210)"/>
				<use xlink:href="#EU-star" y="-6"/>
				<use xlink:href="#EU-star" transform="rotate(210) translate(0,6) rotate(150)"/>
				<use xlink:href="#EU-star" transform="rotate(240) translate(0,6) rotate(120)"/>
				<use xlink:href="#EU-star" x="6"/>
				<use xlink:href="#EU-star" transform="rotate(300) translate(0,6) rotate(60)"/>
				<use xlink:href="#EU-star" transform="rotate(330) translate(0,6) rotate(30)"/>
			</g>
		</g>
		<g id="energy" transform="translate(18,1.7)" fill="#0033ff">
			<path d="m 1.59203,1.5435132 v 1.458979 H 5.0179754 V 4.4953603 H 1.59203 V 6.1706007 H 5.1647118 V 7.6634688 H 0.02474559 V 0.016756 H 5.1647118 v 1.5267572 z" />
			<path d="M 12.592823,0.01665099 V 7.6637132 H 10.721585 L 7.576884,2.5806947 V 7.6637132 H 6.0095996 V 0.01665099 H 7.880838 L 11.025539,5.1681464 V 0.01665099 Z" />
			<path d="m 15.050028,1.5435132 v 1.458979 h 3.425945 V 4.4953603 H 15.050028 V 6.1706007 H 18.62271 V 7.6634688 H 13.482744 V 0.01675599 H 18.62271 V 1.5435132 Z" />
			<path d="M 19.433984,7.6636064 V 0.01654418 h 3.60727 c 0.420295,0 0.780847,0.04192469 1.081656,0.12507531 0.30081,0.0838494 0.548515,0.21905647 0.744513,0.40492256 0.19495,0.18621547 0.33959,0.43322173 0.43392,0.74101875 0.09328,0.3074477 0.140448,0.6816255 0.140448,1.1225334 0,0.2431632 -0.01572,0.4747971 -0.04507,0.6945523 -0.0304,0.2208033 -0.07127,0.4181987 -0.123678,0.5932342 -0.06813,0.1977448 -0.188661,0.3682385 -0.360552,0.5125293 0.149881,0.1593138 0.260981,0.3497217 0.332253,0.5698263 0.07127,0.2201046 0.106908,0.4636171 0.106908,0.7294895 V 7.6636064 H 23.7393 V 5.6805689 c 0,-0.2885816 -0.06708,-0.485977 -0.202287,-0.5925355 C 23.401806,4.9818242 23.18799,4.9283702 22.894517,4.9283702 H 21.01175 v 2.7352362 z m 1.577766,-4.216575 h 1.769571 c 0.225345,0 0.409813,-0.015372 0.552357,-0.045418 0.142544,-0.030745 0.248404,-0.068826 0.315484,-0.1145942 0.113196,-0.091186 0.169794,-0.32282 0.169794,-0.6945522 0,-0.4181987 -0.03459,-0.6956004 -0.101667,-0.832205 -0.06813,-0.1519769 -0.28928,-0.2277907 -0.665554,-0.2277907 H 21.01175 Z" />
			<path d="m 28.913714,3.4471711 h 3.66282 c 0.03773,0.2889309 0.05765,0.5030962 0.06184,0.6435439 0.0042,0.140797 0.0052,0.2644749 0.0052,0.3703347 v 0.626774 c 0,0.5925355 -0.0828,1.1169434 -0.247355,1.5732237 -0.10586,0.2885816 -0.279848,0.5146255 -0.524059,0.6777824 -0.244561,0.1635063 -0.576814,0.2718117 -0.998157,0.3249163 -0.225345,0.022709 -0.458027,0.038082 -0.698046,0.045418 -0.241067,0.00734 -0.481435,0.011529 -0.721454,0.011529 -1.20219,0 -2.029504,-0.1939017 -2.480194,-0.5813556 C 26.485925,6.7368612 26.241714,5.9427379 26.241714,4.7573174 V 4.2786773 c 0,-0.1596632 0.0042,-0.32282 0.01153,-0.48982 V 2.8885247 c 0,-0.9876757 0.199143,-1.7171652 0.597427,-2.18811909 0.210672,-0.24316317 0.497856,-0.42553554 0.861902,-0.54711712 0.364745,-0.12123221 0.794473,-0.182023 1.29128,-0.182023 h 0.416103 c 0.135207,0 0.274606,0.0034937 0.4175,0.01083054 h 0.180276 0.203334 0.405622 c 0.735778,0.02305858 1.252849,0.22289957 1.549466,0.59847486 0.296617,0.37627403 0.44545,0.91011501 0.44545,1.60152291 v 0.6721924 h -1.577766 c 0,-0.6383033 -0.04192,-1.0372865 -0.124726,-1.1969497 -0.03773,-0.075814 -0.194949,-0.1212322 -0.4727,-0.1366046 -0.232682,-0.014674 -0.460124,-0.024456 -0.682674,-0.02795 -0.221153,-0.00384 -0.452787,-0.00594 -0.692805,-0.00594 -0.578561,0 -0.920247,0.060791 -1.025059,0.1823724 -0.10586,0.1292677 -0.165602,0.5506108 -0.180276,1.2650773 0,0.075814 -0.0021,0.1477845 -0.0063,0.2162615 -0.0031,0.068128 -0.0052,0.1446401 -0.0052,0.2277907 v 0.4335711 l 0.01153,0.9681109 c 0,0.1977447 0.0073,0.3843095 0.02201,0.5586464 0.01467,0.1750355 0.04088,0.3343493 0.07861,0.4786401 V 5.794604 c 0.03773,0.0835 0.09747,0.1579163 0.180276,0.2225502 0.0828,0.064634 0.203335,0.107956 0.360553,0.1306652 0.165602,0.023059 0.319675,0.033889 0.462219,0.033889 0.09014,0.00804 0.182373,0.011879 0.276703,0.011879 h 0.275655 0.394441 c 0.263078,0 0.475845,-0.00978 0.637255,-0.028648 0.161411,-0.018517 0.272511,-0.059044 0.332254,-0.1198347 0.104811,-0.091186 0.158265,-0.3947908 0.158265,-0.9115125 V 4.9512191 h -2.130123 z" />
			<path d="m 34.780587,-0.01776211 h 1.739176 l -0.69071,2.19825091 1.8929,-0.310592 -2.71113,5.9222108 0.81823,-4.2927382 -1.815688,0.077561 z" />
		</g>
		<g id="QR-code" transform="translate(58,0) scale(0.37931,0.37931)">
			[QR-CODE]
		</g>
	</g>
	<g transform="translate(3,21)">
		<text x="0" y="-1" font-size="2.46944" font-weight="bold"><![CDATA[[TRADEMARK]]]></text>
		<text x="69" y="-1" font-size="2.46944" text-anchor="end" text-align="end"><![CDATA[[TIRE-TYPE]]]></text>
		<line x1="0" y1="0" x2="69" y2="0" stroke="black" stroke-width="0.1764" />
	</g>
	<g transform="translate(3,28)">
		<text x="0" y="-1" font-size="3.52778"><![CDATA[[TIRE-SIZE-DESIGNATION]]]></text>
		<text x="69" y="-1" font-size="2.46944" text-anchor="end" text-align="end"><![CDATA[[TIRE-CLASS]]]></text>
		<line x1="0" y1="0" x2="69" y2="0" stroke="black" stroke-width="0.1764" />
	</g>
	<g id="fuel-efficiency" transform="translate(3,30)">
		<g transform="translate(7.7,0)">
			<use xlink:href="#tire" x="0" y="14" />
			<path fill="none" stroke="black" stroke-width="0.296343" d="m 15.640737,2.3906315 h 0.583795 v -0.795309 h -0.583795 m -4.552155,6.747091 v -7.634896 c 0,-0.308937 0.271894,-0.559346 0.607132,-0.559346 h 3.299774 c 0.335238,0 0.607132,0.250409 0.607132,0.559346 v 7.634896 m -4.989297,0 h 5.464186 m -1.438373,-5.349354 h -2.507799 c -0.240778,0 -0.435623,-0.179657 -0.435623,-0.401173 v -1.483195 c 0,-0.221516 0.194845,-0.401174 0.435623,-0.401174 h 2.507799 c 0.240408,0 0.435253,0.179658 0.435253,0.401174 v 1.483195 c 0,0.221516 -0.194845,0.401173 -0.435253,0.401173 z m 1.594176,-1.213485 c 0.397099,0 0.418954,0.08075 0.418954,0.538603 v 4.380313 c 0,0.27671 -0.129279,0.501189 -0.288563,0.501189 -0.159284,0 -0.288564,-0.224479 -0.288564,-0.501189 v -2.888599 c 0,-0.343017 -0.160025,-0.620838 -0.357463,-0.620838 m -2.348257,0.983042 v 2.518912" />
			<path fill="black" d="m 12.239799,6.3678835 c 0.399692,0 0.691589,-0.462294 0.452293,-0.931997 -0.137429,-0.269302 -0.448959,-0.757526 -0.448959,-0.757526 0,0 -0.311901,0.488224 -0.448959,0.757526 -0.239297,0.469703 0.04593,0.931997 0.445625,0.931997" />
			<path fill="black" d="m 14.714704,4.5013695 -0.826055,1.258345 h 0.600835 l -0.263004,0.901992 0.842353,-1.230192 -0.591944,-0.03149 z" />
			<path fill="none" stroke="white" stroke-width="0.185214" stroke-linecap="round" d="m 11.993316,5.7990535 c 0,0.03149 0.02,0.162248 0.197809,0.227813" />
		</g>
		<g stroke="black" stroke-width="0.1">
			<path d="M 0,16 h 7.75 l 3.25,3.25 l -3.25,3.25 h -7.75 z" fill="#00ff00" />
			<path d="M 0,24 h 9.75 l 3.25,3.25 l -3.25,3.25 h -9.75 z" fill="#8cff00" />
			<path d="M 0,32 h 11.75 l 3.25,3.25 l -3.25,3.25 h -11.75 z" fill="#ffff00" />
			<path d="M 0,40 h 13.75 l 3.25,3.25 l -3.25,3.25 h -13.75 z" fill="#ffb300" />
			<path d="M 0,48 h 15.75 l 3.25,3.25 l -3.25,3.25 h -15.75 z" fill="#ff0000" />
			<g fill="white" font-size="6.3" font-weight="bold" transform="translate(-0.5,2.2)">
				<text x="4.5" y="19.25" class="calibri" text-anchor="middle">A</text>
				<text x="4.5" y="27.25" class="calibri" text-anchor="middle">B</text>
				<text x="4.5" y="35.25" class="calibri" text-anchor="middle">C</text>
				<text x="4.5" y="43.25" class="calibri" text-anchor="middle">D</text>
				<text x="4.5" y="51.25" class="calibri" text-anchor="middle">E</text>
			</g>
		</g>
		<g display="[FUEL-EFFICIENCY-DISPLAY]" transform="translate(31.5,[FUEL-EFFICIENCY-Y])" fill="black">
			<path d="M 0,-4.75 v 9.5 h -6.5 l -4,-4.75 l 4,-4.75 z"/>
			<text x="-7" y="3" font-size="8.5" fill="white" font-weight="bold">[FUEL-EFFICIENCY]</text>
		</g>
	</g>
	<line x1="37.5" y1="30" x2="37.5" y2="84.5" stroke="black" stroke-width="0.1764" />
	<g id="wet-grip" transform="translate(39.5,30)">
		<g transform="translate(5.795,0)">
			<use xlink:href="#tire" x="2.976" y="14" />
			<path fill="none" stroke="black" stroke-width="0.296343" stroke-linecap="round" d="M 1.906431,11.428937 C 1.532669,11.303733 0.724395,11.181491 0.387676,10.961828 0.138007,10.798839 0.070589,10.485086 0.237652,10.26283 0.404345,10.040573 0.743657,9.992417 0.993326,10.155405 c 0.393765,0.257077 0.588981,0.890139 0.913105,1.273532 z m 11.093399,0 c 0.373762,-0.125204 1.182037,-0.247446 1.518756,-0.467109 0.249668,-0.162989 0.317086,-0.476742 0.150023,-0.698998 -0.166692,-0.222257 -0.506005,-0.270413 -0.755673,-0.107425 -0.393766,0.257077 -0.588981,0.890139 -0.913106,1.273532 z m -1.902556,2.397708 c 1.257233,0.04816 1.979568,0.04816 2.52595,-0.227443 0.40673,-0.205217 0.647138,-0.58009 0.49378,-0.91718 -0.153357,-0.33709 -0.624171,-0.473778 -1.049793,-0.305233 -0.670845,0.265597 -0.740115,0.702703 -1.969937,1.449856 z m -7.288249,0 c -1.257234,0.04816 -1.979198,0.04816 -2.52595,-0.227443 -0.406731,-0.205217 -0.647138,-0.58009 -0.493781,-0.91718 0.153357,-0.33709 0.624172,-0.473778 1.049794,-0.305233 0.670845,0.265597 0.740115,0.702703 1.969937,1.449856 z M 16.91922,6.576733 16.482115,7.1972 M 17.717306,5.520532 17.280201,6.140999 M 16.253374,5.520532 15.816269,6.140999 M 14.845488,5.520532 14.408383,6.140999 M 18.515394,4.464331 18.078289,5.084798 M 17.051463,4.464331 16.614358,5.084798 M 15.643576,4.464331 15.206471,5.084798 M 20.850056,2.92009 c 0,-0.80494 -0.671216,-1.457264 -1.499494,-1.457264 -0.0752,0 -0.14706,0.01111 -0.219293,0.02148 -0.06482,-0.747154 -0.701591,-1.336135 -1.486899,-1.336135 -0.584906,0 -1.086096,0.328941 -1.333542,0.80383 C 16.14784,0.806052 15.93188,0.714556 15.692584,0.714556 c -0.474889,0 -0.860505,0.351907 -0.907549,0.801236 -0.122242,-0.03112 -0.248187,-0.05297 -0.38043,-0.05297 -0.827907,0 -1.499123,0.652324 -1.499123,1.457265 0,0.80494 0.671216,1.457264 1.499123,1.457264 h 4.945957 c 0.828278,0 1.499494,-0.652324 1.499494,-1.457264 z" />
		</g>
		<g stroke="black" stroke-width="0.1">
			<path d="M 0,16 h 7.75 l 3.25,3.25 l -3.25,3.25 h -7.75 z" fill="#0066ff" />
			<path d="M 0,24 h 9.75 l 3.25,3.25 l -3.25,3.25 h -9.75 z" fill="#1999ff" />
			<path d="M 0,32 h 11.75 l 3.25,3.25 l -3.25,3.25 h -11.75 z" fill="#59ccff" />
			<path d="M 0,40 h 13.75 l 3.25,3.25 l -3.25,3.25 h -13.75 z" fill="#80e7ff" />
			<path d="M 0,48 h 15.75 l 3.25,3.25 l -3.25,3.25 h -15.75 z" fill="#b3ffff" />
			<g fill="white" font-size="6.3" font-weight="bold" transform="translate(-0.5,2.2)">
				<text x="4.5" y="19.25" class="calibri" text-anchor="middle">A</text>
				<text x="4.5" y="27.25" class="calibri" text-anchor="middle">B</text>
				<text x="4.5" y="35.25" class="calibri" text-anchor="middle">C</text>
				<text x="4.5" y="43.25" class="calibri" text-anchor="middle">D</text>
				<text x="4.5" y="51.25" class="calibri" text-anchor="middle">E</text>
			</g>
		</g>
		<g display="[WET-GRIP-DISPLAY]" transform="translate(32.5,[WET-GRIP-Y])" fill="black">
			<path d="M 0,-4.75 v 9.5 h -6.5 l -4,-4.75 l 4,-4.75 z"/>
			<text x="-7" y="3" font-size="8.5" fill="white" font-weight="bold">[WET-GRIP]</text>
		</g>
	</g>
	<line x1="3" y1="87" x2="72" y2="87" stroke="black" stroke-width="0.1764" />
	<g id="footer" transform="translate(0,108)">
		<g id="rolling-noise" display="[ROLLING-NOISE-DISPLAY]" transform="translate([ROLLING-NOISE-X],0)">
			<g fill="none" stroke="black" stroke-width="0.3">
				<use xlink:href="#tire" x="0" y="0" />
				<path fill="white" d="m 5.7,-7.8 v -7.14 l 6.14,0 5.52,-3.52 v 14.18 l -5.52,-3.52 Z" />
				<path d="m 19.817896,-14.796481 c 1.062338,2.745624 1.062817,4.471903 0,7.1366748" />
				<path d="m 21.903739,-15.711619 c 1.297069,2.99465 1.351876,5.9807833 0,9.0867028" />
				<path d="m 23.888653,-16.88911 c 1.733912,3.727981 1.733912,7.6239433 0,11.1685138" />
				<text x="16.5" y="-10" stroke="none" fill="black" text-anchor="end" font-size="3.175"><tspan font-size="4.233" font-weight="bold">[ROLLING-NOISE-DB]</tspan> dB</text>
				<text x="17.5" y="0" stroke="none" fill="black" text-anchor="end" font-size="3.527"><tspan class="[ROLLING-NOISE-A]">A</tspan><tspan class="[ROLLING-NOISE-B]">B</tspan><tspan class="[ROLLING-NOISE-C]">C</tspan></text>
			</g>
		</g>
		<g id="snow-grip" display="[SNOW-GRIP-DISPLAY]" transform="translate([SNOW-GRIP-X],0)">
			<path d="m 0,0 2.9,-7.2 1,1.8 L 7,-14 9,-9 9.6,-11.2 15,0 Z" fill="none" stroke="black" stroke-width="0.3" />
			<use xlink:href="#snowflake" x="8" y="-4" />
		</g>
		<g id="ice-grip" display="[ICE-GRIP-DISPLAY]" transform="translate([ICE-GRIP-X],0)">
			<path d="M 0,0 7,-13 15,0 Z" fill="none" stroke="black" stroke-width="0.3" />
			<path d="M 9.1015625,-7.22656 8.53125,-4.6543 7.8886719,-5.57031 7.0234375,-2.94922 5.8359375,-6.13867 5.2675781,-5.27344 4.625,-6.13867 1.8789062,-1.09375 H 13.082031 Z" fill="none" stroke="black" stroke-width="0.3" />
			<path d="m 7.8532415,-5.4623478 2.8869925,4.36923 m -6.4139962,-4.49606 2.9725902,4.49606 m -2.7110149,-4.9766 3.2891396,4.9766 m -2.4157566,-4.47444 2.9567721,4.47444 m -1.1463249,-2.60737 1.7244501,2.60737 m -1.5244539,-3.21322 2.1240634,3.21322 m -1.9372306,-3.77921 2.4977777,3.77921 m -1.5162753,-4.05092 2.6764303,4.05092 m -2.5313875,-4.70511 3.1095125,4.7051 m -2.9648823,-5.35742 3.5410543,5.35742 m -9.4372873,-2.12097 1.4021321,2.12098 m -0.630373,-3.5388 2.339357,3.5388 m -2.070255,-4.03317 2.6659583,4.03317 m -3.967128,-1.64276 1.0862689,1.64276 m -0.5589449,-2.61152 1.7249605,2.61152 m -1.4721785,-3.07591 2.0327254,3.07591 m -3.0764933,-1.15838 0.7659465,1.15838 m -1.0158217,-0.69932 0.4630872,0.69932" stroke="black" stroke-width="0.1" />
		</g>
		<g transform="translate(72,0)">
			<text fill="black" text-anchor="end" font-size="2" transform="rotate(90)">2020/740</text>
		</g>
	</g>
</svg>
