<svg xmlns="http://www.w3.org/2000/svg" xmlns:xlink="http://www.w3.org/1999/xlink" version="1.1" viewBox="0 0 75 110">
	<rect x="0" y="0" width="75" height="110" fill="white" stroke="#0091d2" stroke-width="0.35" />
	<g transform="translate(5,5)" fill="#0091d2">
		<path d="m 20.553125,8.0340853 c -0.354303,0.086553 -0.690914,0.2650662 -1.0125,0.534375 -1.984915,1.6660527 -2.931373,6.1359097 -2.109375,9.9843747 0.498181,2.333883 1.381004,3.952986 2.390625,4.44375 0.03086,0.0052 0.05266,3.71e-4 0.05625,0 0.963644,0.01558 2.463044,-0.01448 3.31875,-0.253125 0.334598,-0.09323 0.60075,-0.312558 0.759375,-0.478125 1.185417,-1.284247 1.827288,-4.316819 1.715625,-7.36875 l -1.29375,0 c 0.08619,2.311308 -0.268155,4.623379 -0.928125,5.596875 -0.807622,1.190373 -1.750486,-0.06822 -2.109375,-2.8125 -0.360251,-2.745636 0.0084,-5.953252 0.815625,-7.14375 C 22.435209,10.124983 22.717763,10.037103 23,10.171585 l 0,-1.7999997 -1.771875,-0.253125 c 0,0 0.07095,-0.056304 0.28125,-0.084375 l -0.95625,0 z m -0.7875,0.028125 c -0.729734,-0.014706 -1.456653,0.083205 -2.109375,0.16875 0.298536,-0.023247 1.265625,-0.084375 1.265625,-0.084375 -0.236202,0.083214 -0.460361,0.2006199 -0.675,0.3375 l -1.490625,0.16875 c -0.122732,0.084042 -0.204138,0.18558 -0.309375,0.28125 l 1.40625,-0.140625 c -0.169654,0.1457829 -0.352335,0.2983383 -0.50625,0.478125 L 16.025,9.4122103 c -0.128912,0.1770705 -0.258284,0.377388 -0.365625,0.534375 0.431448,-0.040662 0.862767,-0.092738 1.29375,-0.140625 -0.134459,0.2024147 -0.274657,0.4205957 -0.39375,0.6468747 L 15.35,10.59346 c -0.08476,0.188813 -0.178646,0.386233 -0.253125,0.590625 0.393905,-0.03198 0.78771,-0.07411 1.18125,-0.1125 -0.101867,0.241487 -0.196485,0.499958 -0.28125,0.759375 l -1.125,0.08438 C 14.804213,12.15707 14.72866,12.418632 14.675,12.67471 l 1.096875,-0.08437 c -0.06754,0.271905 -0.119676,0.559974 -0.16875,0.84375 l -1.06875,0.05625 c -0.05786,0.332321 -0.06076,0.64557 -0.08438,0.95625 l 1.0125,-0.02813 c -0.02193,0.237036 -0.01858,0.463121 -0.02813,0.703125 l -1.040625,0.02813 c -0.01911,0.40161 0.01152,0.801592 0.02812,1.18125 l 1.0125,0 c 0.0079,0.161363 0.01326,0.34464 0.02813,0.50625 l -1.040625,0 c 0.0515,0.386797 0.110751,0.75693 0.16875,1.125 l 1.040625,0.1125 c 0.02788,0.151965 0.0778,0.29989 0.1125,0.45 l -1.096875,-0.1125 c 0.07765,0.431908 0.202628,0.79506 0.3375,1.18125 l 1.096875,0.140625 c 0.0316,0.09521 0.05179,0.188761 0.08437,0.28125 L 15.06875,19.87471 c 0.121547,0.376099 0.329232,0.733273 0.50625,1.06875 l 1.06875,0.16875 c 0.03048,0.05985 0.05265,0.11113 0.08437,0.16875 l -1.06875,-0.16875 c 0.155956,0.34218 0.432878,0.601715 0.675,0.871875 l 1.0125,0.16875 c 0.04659,0.05329 0.09304,0.121392 0.140625,0.16875 L 16.446875,22.12471 c 0.324295,0.370492 0.741424,0.487863 1.153125,0.675 0.488056,0.06651 1.015638,0.116917 1.4625,0.16875 -0.96761,-0.522047 -1.846605,-2.132932 -2.334375,-4.415625 -0.821378,-3.84933 0.12508,-8.317827 2.109375,-9.9843747 0.303494,-0.2557071 0.624136,-0.4058469 0.928125,-0.50625 z m 1.125,0.140625 1.828125,0.225 c -0.173992,-0.024606 -0.552779,0.03681 -0.815625,0.225 l -1.40625,-0.16875 c 0.163086,-0.1417023 0.228558,-0.2026089 0.39375,-0.28125 z m -0.703125,0.590625 1.434375,0.140625 c -0.04399,0.040059 -0.09725,0.06687 -0.140625,0.1125 C 21.376409,9.1542838 21.297158,9.2810182 21.2,9.4122103 L 19.821875,9.2715853 C 19.940719,9.0917986 20.057626,8.9406031 20.1875,8.7934603 z m -0.703125,1.0125 1.40625,0.140625 C 20.779836,10.147145 20.678655,10.362978 20.58125,10.59346 l -1.378125,-0.140625 c 0.09133,-0.225413 0.177401,-0.444089 0.28125,-0.6468747 z m -0.50625,1.2656247 1.40625,0.1125 c -0.08093,0.239757 -0.15746,0.498969 -0.225,0.759375 l -1.40625,-0.1125 c 0.06531,-0.259787 0.146308,-0.517516 0.225,-0.759375 z m 3.54375,0.140625 c -0.165479,0.0051 -0.317641,0.100279 -0.478125,0.3375 -0.643421,0.948021 -0.933019,3.494139 -0.646875,5.68125 0.286516,2.186618 1.044079,3.198144 1.6875,2.25 0.538477,-0.795042 0.819608,-2.698778 0.73125,-4.584375 l -0.815625,0 0,-3.43125 C 22.855425,11.285226 22.677653,11.207352 22.521875,11.21221 z m -3.9375,1.378125 1.40625,0.08437 C 19.936715,12.945256 19.88978,13.235551 19.85,13.51846 l -1.378125,-0.08437 c 0.03792,-0.283775 0.06132,-0.571844 0.1125,-0.84375 z m -0.225,1.828125 1.40625,0.02813 c -0.01735,0.232091 -0.01945,0.46745 -0.02812,0.703125 l -1.40625,-0.02813 c 0.0066,-0.241982 0.01152,-0.465717 0.02812,-0.703125 z m -0.02812,1.9125 1.40625,0 c 0.0056,0.161363 -0.0093,0.34464 0,0.50625 l -1.378125,0 c -0.01153,-0.16161 -0.02119,-0.345011 -0.02812,-0.50625 z M 19.85,17.990335 c 0.01858,0.137746 0.03221,0.284748 0.05625,0.421875 l -1.321875,0.1125 C 18.547223,18.410306 18.514175,18.238362 18.5,18.102835 l 1.35,-0.1125 z m 0.28125,1.63125 c 0.02144,0.08668 0.03456,0.16892 0.05625,0.253125 l -1.265625,0.140625 c -0.02281,-0.08112 -0.06219,-0.169538 -0.08438,-0.253125 l 1.29375,-0.140625 z m 0.39375,1.35 c 0.0212,0.05626 0.06244,0.11385 0.08438,0.16875 l -1.2375,0.140625 c -0.02281,-0.0528 -0.06195,-0.114962 -0.08437,-0.16875 l 1.2375,-0.140625 z m 0.534375,1.06875 c 0.02516,0.03771 0.03022,0.07825 0.05625,0.1125 l -1.153125,0.16875 c -0.02528,-0.03066 -0.06058,-0.0796 -0.08437,-0.1125 l 1.18125,-0.16875 z" />
		<path d="m 26.459375,4.2934603 c -0.361367,0 -0.646875,0.2866842 -0.646875,0.646875 l 0,6.6937497 -0.3375,0 0,0.73125 5.0625,0 0,-0.73125 -0.3375,0 0,-3.7687497 c 0.171265,0.034623 0.390262,0.066555 0.478125,0.140625 0.135823,0.1174671 0.221035,0.2715525 0.225,0.5625 l 0,1.18125 c 4.96e-4,0.6249237 0.147634,1.0893937 0.39375,1.4343747 0.243514,0.346343 0.616441,0.538085 0.984375,0.534375 0.683325,0 1.249006,-0.656108 1.321875,-1.8562497 0.0057,-0.085194 0,-0.1638504 0,-0.253125 -0.0056,-0.9854865 -0.356034,-2.2650048 -0.590625,-3.009375 l 0.309375,-0.309375 c 0,0 -0.644727,-1.3857993 -2.559375,-1.996875 l 0,0.646875 c 0,0 1.108402,0.4321253 1.659375,2.1375 0.03495,0.1180854 0.0757,0.2322072 0.1125,0.365625 0.191093,0.6905826 0.367608,1.5549201 0.365625,2.165625 0,0.07209 0.0055,0.1584765 0,0.225 -0.104345,1.0380377 -0.397171,1.1732127 -0.61875,1.1812497 -0.154287,-0.004 -0.290019,-0.04917 -0.421875,-0.225 -0.12913,-0.177561 -0.225248,-0.512765 -0.225,-1.0406247 l 0,-1.18125 C 31.638695,8.1234463 31.469286,7.7292706 31.15625,7.4715853 30.922279,7.2772087 30.52295,7.1756311 30.2,7.1340853 l 0,-2.19375 c 0,-0.3601908 -0.286252,-0.646875 -0.646875,-0.646875 l -3.09375,0 z m -0.05625,0.61875 3.20625,0 0,2.19375 -3.20625,0 0,-2.19375 z" />
		<g stroke="black" stroke-width="0.18" stroke-dasharray="0.75 0.75">
			<line x1="6.5" y1="29.375" x2="36" y2="29.375" />
			<line x1="6.5" y1="34.875" x2="36" y2="34.875" />
			<line x1="6.5" y1="40.375" x2="36" y2="40.375" />
			<line x1="6.5" y1="45.875" x2="36" y2="45.875" />
			<line x1="6.5" y1="51.375" x2="36" y2="51.375" />
			<line x1="6.5" y1="56.875" x2="36" y2="56.875" />
			<line x1="6.5" y1="62.375" x2="36" y2="62.375" />
		</g>
		<g stroke="black" stroke-width="0.18">
			<path d="m 0.1 27.0 h 4.75 l 2.375,2.375 l -2.375,2.375 h -4.75 z" fill="#009036" />
			<path d="m 0.1 32.5 h 7.125 l 2.375,2.375 l -2.375,2.375 h -7.125 z" fill="#57ab27" />
			<path d="m 0.1 38.0 h 9.5 l 2.375,2.375 l -2.375,2.375 h -9.5 z" fill="#c9d200" />
			<path d="m 0.1 43.5 h 11.875 l 2.375,2.375 l -2.375,2.375 h -11.875 z" fill="#ffed00" />
			<path d="m 0.1 49.0 h 14.25 l 2.375,2.375 l -2.375,2.375 h -14.25 z" fill="#fabb00" />
			<path d="m 0.1 54.5 h 16.625 l 2.375,2.375 l -2.375,2.375 h -16.625 z" fill="#eb690b" />
			<path d="m 0.1 60.0 h 19.0 l 2.375,2.375 l -2.375,2.375 h -19.0 z" fill="#e2001a" />
			<g fill="white" font-size="4.5" font-weight="bold">
				<text x="1.250" y="31.0">A</text>
				<text x="3.625" y="36.5">B</text>
				<text x="6.000" y="42.0">C</text>
				<text x="8.375" y="47.5">D</text>
				<text x="10.750" y="53.0">E</text>
				<text x="13.125" y="58.5">F</text>
				<text x="15.500" y="64.0">G</text>
			</g>
		</g>
		<path d="m 14,0 c -2.209139,0 -4,1.7908612 -4,4 l 0,17.75 -10,0 L 0,70 36,70 36,4 C 36,1.790861 34.209139,0 32,0 L 14,0 z m 0,1.25 18,0 c 1.518783,0 2.75,1.231217 2.75,2.75 l 0,19 0.90625,0 0,45.75 -35.3125,0 0,-45.75 10.90625,0 0,-19 c 0,-1.518783 1.231217,-2.75 2.75,-2.75 z" />
	</g>
	<g transform="translate(43.5,5)" fill="#0091d2">
		<path d="M 9.765625,8.0622103 C 9.0607441,8.0754133 8.2084999,8.1834457 7.684375,8.2590853 7.9826638,8.2358383 8.95,8.1747103 8.95,8.1747103 8.7136744,8.2578073 8.4612658,8.3473294 8.246875,8.4840853 l -1.4625,0.16875 C 6.6502939,8.7302443 6.5696809,8.8675294 6.475,8.9622103 l 1.378125,-0.16875 C 7.6833472,8.9392432 7.529287,9.0917986 7.375,9.2715853 l -1.35,0.16875 C 5.9234692,9.6042631 5.7856684,9.7993327 5.6875,9.9465853 6.1095082,9.9141943 6.53143,9.8724163 6.953125,9.8340853 6.8189134,10.036501 6.7065925,10.254806 6.5875,10.48096 L 5.35,10.59346 C 5.265238,10.78215 5.1996028,10.979693 5.125,11.184085 5.5188373,11.160109 5.9126188,11.12851 6.30625,11.09971 6.204631,11.341322 6.1097647,11.571543 6.025,11.83096 l -1.153125,0.1125 c -0.067419,0.241735 -0.114966,0.475172 -0.16875,0.73125 L 5.8,12.61846 C 5.732464,12.890366 5.6805727,13.15031 5.63125,13.434085 L 4.534375,13.51846 C 4.492282,13.865751 4.474552,14.153051 4.45,14.47471 l 1.040625,-0.05625 c -0.022059,0.237036 -0.046458,0.491371 -0.05625,0.73125 -0.3468438,0.01019 -0.6937758,0.01888 -1.040625,0.02812 -0.013968,0.423252 0.012069,0.797966 0.028125,1.18125 l 1.040625,0 c 0.00819,0.161363 0.0135,0.316392 0.028125,0.478125 l -1.040625,0 c 0.016461,0.384382 0.087282,0.76446 0.140625,1.125 l 1.06875,0.140625 c 0.027882,0.151965 0.049797,0.300137 0.084375,0.45 L 4.675,18.440335 c 0.086058,0.415047 0.1991232,0.800656 0.309375,1.18125 L 6.08125,19.76221 c 0.031599,0.09521 0.079911,0.188637 0.1125,0.28125 L 5.096875,19.902835 c 0.1150803,0.378815 0.311778,0.728827 0.478125,1.06875 l 1.06875,0.140625 c 0.030483,0.05997 0.080532,0.139255 0.1125,0.196875 l -1.096875,-0.16875 c 0.1945746,0.318217 0.4651965,0.619181 0.675,0.871875 l 1.0125,0.16875 c 0.046971,0.05329 0.093162,0.09327 0.140625,0.140625 L 6.475,22.152835 c 0.3205008,0.338992 0.7943229,0.494352 1.153125,0.646875 0.4806153,0.06585 1.0002726,0.117164 1.434375,0.16875 -0.9676098,-0.522047 -1.8184797,-2.10493 -2.30625,-4.3875 -0.8216262,-3.848837 0.1250802,-8.317826 2.109375,-9.9843747 0.303246,-0.2557071 0.5957631,-0.4338477 0.9,-0.534375 z m 0.815625,0 C 10.226947,8.1488893 9.8624596,8.3272765 9.540625,8.5965853 7.5557101,10.262639 6.6373771,14.732618 7.459375,18.58096 7.9574314,20.914968 8.8402549,22.505821 9.85,22.996585 c 0.030861,0.0052 0.052776,2.48e-4 0.05625,0 0.963397,0.01558 2.463044,-0.01448 3.31875,-0.253125 0.334475,-0.09311 0.572625,-0.284433 0.73125,-0.45 1.083121,-1.173622 1.751364,-3.834102 1.771875,-6.609375 l -1.321875,0 c -0.01071,2.038583 -0.341673,3.944456 -0.928125,4.809375 -0.807622,1.190374 -1.77886,-0.0681 -2.1375,-2.8125 -0.360499,-2.745513 0.0081,-5.925127 0.815625,-7.115625 0.272892,-0.403321 0.567076,-0.514619 0.84375,-0.39375 l 0,-1.7999997 -1.771875,-0.225 c 0,0 0.07107,-0.056178 0.28125,-0.084375 l -0.928125,0 z m 0.3375,0.16875 1.8,0.225 c -0.173867,-0.024606 -0.52453,0.00882 -0.7875,0.196875 l -1.434375,-0.16875 C 10.660209,8.342383 10.753681,8.3096014 10.91875,8.2309603 z m -0.703125,0.5625 1.434375,0.140625 c -0.04412,0.040059 -0.09737,0.094874 -0.140625,0.140625 C 11.404286,9.182533 11.297034,9.3090199 11.2,9.4403353 l -1.378125,-0.16875 c 0.1188441,-0.1797867 0.263752,-0.3309822 0.39375,-0.478125 z m -0.703125,1.040625 1.40625,0.1125 c -0.110789,0.2005597 -0.239723,0.4166397 -0.3375,0.6468747 l -1.35,-0.1125 C 9.3227071,10.255547 9.4085266,10.036872 9.5125,9.8340853 z m -0.50625,1.2656247 1.378125,0.08437 c -0.0808,0.239757 -0.157585,0.498846 -0.225,0.759375 L 8.78125,11.83096 c 0.06543,-0.259787 0.1463076,-0.489391 0.225,-0.73125 z m 3.54375,0.1125 c -0.16547,0.0051 -0.317611,0.128404 -0.478125,0.365625 -0.643298,0.948021 -0.933391,3.494139 -0.646875,5.68125 0.286267,2.186494 1.016202,3.169896 1.659375,2.221875 0.463442,-0.684256 0.746597,-2.186749 0.759375,-3.796875 l -0.84375,0 0,-4.190625 c -0.144048,-0.178642 -0.294872,-0.286089 -0.45,-0.28125 z m -3.9375,1.40625 1.40625,0.05625 c -0.05391,0.270546 -0.100845,0.560841 -0.140625,0.84375 l -1.40625,-0.08437 C 8.509549,13.15031 8.561317,12.890366 8.6125,12.61846 z m -0.225,1.8 1.40625,0.05625 C 9.776398,14.706924 9.746419,14.942283 9.7375,15.177835 L 8.33125,15.14971 C 8.33782,14.907605 8.370769,14.655991 8.3875,14.41846 z m -0.028125,1.940625 1.378125,0 c 0.00531,0.161363 0.018585,0.316392 0.028125,0.478125 l -1.378125,0 C 8.375971,16.675477 8.366071,16.520448 8.359375,16.359085 z m 1.51875,1.659375 c 0.018585,0.13787 0.032454,0.256623 0.05625,0.39375 l -1.35,0.140625 C 8.562856,18.413227 8.54482,18.256175 8.528125,18.13096 l 1.35,-0.1125 z m 0.28125,1.63125 c 0.02144,0.08668 0.03494,0.168796 0.05625,0.253125 L 8.921875,20.04346 C 8.898952,19.962343 8.88781,19.873799 8.865625,19.790335 l 1.29375,-0.140625 z m 0.39375,1.321875 c 0.02144,0.05613 0.03444,0.11385 0.05625,0.16875 l -1.2375,0.16875 C 9.3487,21.256282 9.338548,21.194123 9.315625,21.140335 l 1.2375,-0.16875 z m 0.50625,1.096875 c 0.02491,0.03759 0.05835,0.07813 0.08438,0.1125 L 9.9625,22.321585 C 9.937588,22.290796 9.930289,22.270222 9.90625,22.23721 l 1.153125,-0.16875 z" />
		<path d="M 2.846875,17.55661 C 2.6185117,17.53285 2.3902258,17.597623 2.2,17.753485 c -0.3806991,0.31172 -0.4287582,0.852827 -0.1125,1.2375 0.3163815,0.384055 2.446875,1.603125 2.446875,1.603125 0,0 -0.7521201,-2.343822 -1.06875,-2.728125 C 3.3071242,17.673957 3.0752383,17.580366 2.846875,17.55661 z" />
		<path d="m 17.359373,17.55661 c -0.228411,0.02376 -0.460305,0.117347 -0.61875,0.309375 -0.316629,0.384303 -1.06875,2.728125 -1.06875,2.728125 0,0 2.130372,-1.21907 2.446875,-1.603125 0.31626,-0.384673 0.267831,-0.92578 -0.1125,-1.2375 -0.19035,-0.15586 -0.418464,-0.220631 -0.646875,-0.196875 z" />
		<path d="m 3.240625,20.734735 c -0.3507363,-0.01778 -0.6839793,0.174065 -0.84375,0.50625 -0.212904,0.443036 -0.027855,0.965729 0.421875,1.18125 0.4498497,0.214655 2.896875,0.39375 2.896875,0.39375 0,0 -1.6600212,-1.782096 -2.109375,-1.996875 -0.1124937,-0.05363 -0.2487132,-0.07844 -0.365625,-0.08437 z" />
		<path d="m 16.965623,20.734735 c -0.116883,0.0059 -0.225063,0.03074 -0.3375,0.08437 -0.449721,0.214779 -2.137498,1.996875 -2.137498,1.996875 0,0 2.447395,-0.179095 2.896873,-0.39375 0.449973,-0.215521 0.63441,-0.738214 0.421875,-1.18125 -0.159678,-0.332185 -0.493083,-0.524038 -0.84375,-0.50625 z" />
		<path d="m 20.115623,4.3378585 c -0.996732,-0.088781 -1.609641,0.2731284 -1.828125,0.73125 0,0 -2.860578,-0.3062592 -2.25,1.5468747 -0.0036,0.00792 -2.47259,0.014958 -1.574998,1.6593759 l 9.646873,0 c 0,0 -0.0864,-1.3983228 -2.19375,-1.153125 0,0 0.52038,-1.172769 -0.646875,-1.5750006 -0.0027,0.00965 0.208197,-1.1503944 -1.153125,-1.209375 z" />
		<g fill="none" stroke="#0091d2" stroke-width="0.27">
			<path d="m 17.162498,8.8097341 c 0,0 -1.618065,0.9201591 -1.85625,1.2093759 -0.238059,0.289463 -0.20214,0.693809 0.08433,0.928125 0.286398,0.234934 0.717444,0.204841 0.95625,-0.08437 0.237816,-0.289216 0.815625,-2.0531259 0.815625,-2.0531259 z" />
			<path d="m 19.693748,8.8097341 c 0,0 -1.618434,0.9201591 -1.85625,1.2093759 -0.238428,0.289463 -0.174015,0.693809 0.1125,0.928125 0.286272,0.234934 0.689823,0.204841 0.928125,-0.08437 0.238311,-0.289216 0.815625,-2.0531259 0.815625,-2.0531259 z" />
			<path d="m 22.253123,8.8097341 c 0,0 -1.617939,0.9201591 -1.85625,1.2093759 -0.237933,0.289463 -0.202266,0.693809 0.08433,0.928125 0.286398,0.234934 0.717444,0.204841 0.95625,-0.08437 0.237816,-0.289216 0.815625,-2.0531259 0.815625,-2.0531259 z" />
			<path d="m 17.837498,11.81911 c 0,0 -1.589814,0.892034 -1.828125,1.18125 -0.238059,0.289587 -0.201645,0.721687 0.08433,0.95625 0.286641,0.23481 0.689697,0.204841 0.928125,-0.08437 0.238437,-0.289216 0.815625,-2.053125 0.815625,-2.053125 z" />
			<path d="m 20.396873,11.81911 c 0,0 -1.618191,0.892034 -1.85625,1.18125 -0.237933,0.289587 -0.20214,0.721687 0.08433,0.95625 0.286515,0.23481 0.717444,0.204841 0.95625,-0.08437 0.238059,-0.289216 0.815625,-2.053125 0.815625,-2.053125 z" />
		</g>
		<g stroke="black" stroke-width="0.18" stroke-dasharray="0.75 0.75">
			<line x1="6.5" y1="29.375" x2="26" y2="29.375" />
			<line x1="6.5" y1="34.875" x2="26" y2="34.875" />
			<line x1="6.5" y1="40.375" x2="26" y2="40.375" />
			<line x1="6.5" y1="45.875" x2="26" y2="45.875" />
			<line x1="6.5" y1="51.375" x2="26" y2="51.375" />
			<line x1="6.5" y1="56.875" x2="26" y2="56.875" />
			<line x1="6.5" y1="62.375" x2="26" y2="62.375" />
			<g fill="black" stroke="none" font-size="4.5" font-weight="bold">
				<text x="1.5" y="31.0">A</text>
				<text x="1.5" y="36.5">B</text>
				<text x="1.5" y="42.0">C</text>
				<text x="1.5" y="47.5">D</text>
				<text x="1.5" y="53.0">E</text>
				<text x="1.5" y="58.5">F</text>
				<text x="1.5" y="64.0">G</text>
			</g>
		</g>
		<path d="m 4,0 c -2.209139,0 -4,1.790861 -4,4 l 0,66 26,0 0,-66 c 0,-2.209139 -1.790861,-4 -4,-4 l -18,0 z m 0,1.25 18,0 c 1.518783,0 2.75,1.231217 2.75,2.75 l 0,19 0.90625,0 0,45.75 -25.3125,0 0,-45.75 0.90625,0 0,-19 c 0,-1.5187832 1.231217,-2.75 2.75,-2.75 z" />
	</g>
	<g transform="translate(15,77.25)" fill="#0091d2">
		<path d="m 9.79375,4.841895 c -0.018081,0.00594 -0.038052,0.0216 -0.05625,0.028125 0.018981,-8.379e-4 0.037242,7.641e-4 0.05625,0 l 0,-0.028125 z M 9.7375,4.87002 C 9.0141304,4.901943 8.3103826,4.9888569 7.684375,5.066895 7.9830355,5.043648 8.95,4.98252 8.95,4.98252 8.7137977,5.06586 8.4893908,5.1548916 8.275,5.291895 L 6.784375,5.460645 C 6.6741691,5.5653987 6.5738965,5.6711235 6.475,5.77002 L 7.88125,5.60127 C 7.7115964,5.7470529 7.5572887,5.92761 7.403125,6.10752 l -1.35,0.140625 C 5.9297395,6.407742 5.8160659,6.6037341 5.715625,6.754395 6.1376332,6.722004 6.559555,6.680226 6.98125,6.641895 6.8469151,6.8441853 6.7348417,7.0624911 6.615625,7.28877 l -1.2375,0.1125 C 5.29348,7.5899595 5.227852,7.7871315 5.153125,7.991895 L 6.30625,7.90752 C 6.2045068,8.1490071 6.1096414,8.3793531 6.025,8.63877 L 4.9,8.75127 C 4.832338,8.9927571 4.7849098,9.2261946 4.73125,9.48252 L 5.828125,9.42627 C 5.760832,9.6982986 5.680201,9.9581196 5.63125,10.241895 L 4.5625,10.32627 C 4.500598,10.668735 4.502776,10.958255 4.478125,11.28252 L 5.51875,11.22627 c -0.021933,0.236789 -0.046584,0.491494 -0.05625,0.73125 -0.3468438,0.01019 -0.6937758,0.01888 -1.040625,0.02812 -0.018729,0.400804 0.011952,0.796354 0.028125,1.18125 l 1.0125,0 c 0.00792,0.161239 0.0135,0.316268 0.028125,0.478125 l -1.0125,0 c 0.016362,0.384232 0.087273,0.764632 0.140625,1.125 l 1.06875,0.140625 c 0.027882,0.151839 0.04968,0.300141 0.084375,0.45 L 4.675,15.248145 c 0.098475,0.405315 0.2265633,0.799857 0.3375,1.18125 l 1.096875,0.140625 c 0.031473,0.09521 0.051786,0.188883 0.084375,0.28125 L 5.096875,16.710645 c 0.121626,0.376218 0.3292047,0.705132 0.50625,1.040625 l 1.06875,0.140625 c 0.030483,0.05976 0.052281,0.139374 0.084375,0.196875 L 5.6875,17.92002 c 0.1791162,0.339183 0.4278996,0.595494 0.675,0.871875 l 1.0125,0.16875 c 0.046476,0.05328 0.093162,0.09327 0.140625,0.140625 L 6.475,18.93252 c 0.3526578,0.343134 0.7510923,0.478548 1.18125,0.646875 0.4659138,0.119421 1.0017738,0.128106 1.434375,0.16875 C 8.1230152,19.226217 7.2721453,17.64309 6.784375,15.360645 5.9632447,11.510943 6.8813302,7.0426938 8.865625,5.37627 9.1508305,5.1356586 9.4498186,4.9731492 9.7375,4.87002 z m 0.84375,0 C 10.226823,4.956699 9.8900887,5.1350862 9.56875,5.404395 7.5838351,7.0705713 6.6372529,11.540057 7.459375,15.38877 c 0.4981806,2.33388 1.4095008,3.924864 2.41875,4.415625 0.031104,0.0054 0.052659,3.69e-4 0.05625,0 0.963644,0.01557 2.434919,-0.01476 3.290625,-0.253125 0.334723,-0.09348 0.60075,-0.284553 0.759375,-0.45 0.71686,-0.776493 1.235033,-2.206494 1.51875,-3.88125 l -0.61875,-0.534375 -0.61875,0 c -0.157793,1.125702 -0.423472,2.078964 -0.7875,2.615625 -0.807622,1.190619 -1.750982,-0.06813 -2.109375,-2.8125 -0.360375,-2.745389 0.008,-5.9250042 0.815625,-7.115625 0.785629,-1.1611197 1.702271,0.015345 2.08125,2.615625 l 0.61875,0 0.61875,-0.534375 C 15.240714,7.9869747 14.794852,6.8787759 14.265625,6.16377 13.715024,5.4207606 13.281752,5.2227291 13.253125,5.20752 L 11.25625,4.954395 c 0,0 0.0707,-0.056187 0.28125,-0.084375 l -0.95625,0 z m 0.3375,0.16875 1.828125,0.225 c -0.173743,-0.024354 -0.524778,0.00864 -0.7875,0.196875 L 10.525,5.291895 C 10.688086,5.1501927 10.753558,5.1172878 10.91875,5.03877 z M 10.215625,5.60127 11.65,5.741895 c -0.140323,0.1687995 -0.293427,0.3511998 -0.421875,0.50625 L 9.85,6.10752 C 9.9688441,5.9274867 10.085999,5.7481653 10.215625,5.60127 z m -0.675,1.040625 1.378125,0.1125 C 10.808084,6.9548304 10.707029,7.1707872 10.609375,7.40127 L 9.23125,7.28877 C 9.3225829,7.0633569 9.4368991,6.8445561 9.540625,6.641895 z M 9.00625,7.90752 10.4125,7.991895 c -0.0808,0.2397564 -0.15746,0.498969 -0.225,0.759375 L 8.809375,8.63877 C 8.874436,8.3789823 8.9274334,8.1493788 9.00625,7.90752 z m 3.571875,0.1125 c -0.165503,0.00513 -0.345674,0.1284651 -0.50625,0.365625 -0.643173,0.9482679 -0.933391,3.494014 -0.646875,5.68125 0.286516,2.18637 1.044327,3.169899 1.6875,2.221875 0.237934,-0.351324 0.432678,-0.914481 0.5625,-1.603125 l -0.9,0 0,-4.696875 0.871875,0 C 13.403398,8.7352311 13.006713,8.0068116 12.578125,8.02002 z m -3.9375,1.40625 1.40625,0.084375 C 9.992965,9.7811904 9.9457825,10.043236 9.90625,10.32627 L 8.5,10.241895 C 8.5378,9.9579954 8.589316,9.6982986 8.640625,9.42627 z m -0.253125,1.8 1.40625,0.05625 C 9.776281,11.514734 9.774427,11.749969 9.765625,11.985645 L 8.359375,11.95752 C 8.366035,11.715661 8.370769,11.463801 8.3875,11.22627 z m -0.028125,1.940625 1.40625,0 c 0.00549,0.161239 -0.00941,0.316268 0,0.478125 l -1.378125,0 C 8.376097,13.483286 8.366314,13.328134 8.359375,13.166895 z m 1.51875,1.659375 c 0.018963,0.137997 0.032328,0.256374 0.05625,0.39375 L 8.6125,15.360645 C 8.597569,15.221434 8.572936,15.063908 8.55625,14.93877 l 1.321875,-0.1125 z m 0.28125,1.63125 c 0.02156,0.08667 0.06294,0.168921 0.08437,0.253125 L 8.95,16.85127 C 8.927077,16.77054 8.916061,16.681854 8.89375,16.598145 l 1.265625,-0.140625 z m 0.39375,1.321875 c 0.02107,0.05616 0.06244,0.113976 0.08437,0.16875 L 9.4,18.116895 C 9.377077,18.064425 9.338305,18.001929 9.315625,17.948145 l 1.2375,-0.16875 z M 11.0875,18.87627 c 0.02515,0.03762 0.0581,0.07839 0.08437,0.1125 l -1.18125,0.140625 C 9.965713,19.098615 9.930289,19.078005 9.90625,19.045065 l 1.18125,-0.16875 z" />
		<path d="m 17.967845,8.5265625 -2.615625,2.3343755 -1.378125,0 0,2.278125 1.378125,0 2.615625,2.334379 z" />
		<path d="m 4,0 c -2.209139,0 -4,1.790861 -4,4 l 0,16 c 0,2.209139 1.790861,4 4,4 l 50.5,0 0,-24 -28.5,0 -22,0 z m 22,0.34375 27.25,0 0,23.3125 -27.25,0 L 26,22.75 4,22.75 c -1.518783,0 -2.75,-1.231217 -2.75,-2.75 l 0,-16 c 0,-1.518783 1.231217,-2.75 2.75,-2.75 l 22,0 0,-0.90625 z" />
	</g>
	<g transform="translate(5,100)">
		<symbol id="EU-logo-star">
			<path d="m -0.4392187,-0.0986 0.3354006,0 0.1039066,-0.31897 0.1039066,0.31897 0.3352236,0 -0.271077,0.1972 0.1040841,0.31897 -0.2721374,-0.19722 -0.2716074,0.19722 0.1039067,-0.31897 z" fill="#ffed00" />
		</symbol>
		<rect x="0" y="0" width="9" height="6" fill="#004494" />
		<use x="4.5009274" y="0.81882" xlink:href="#EU-logo-star" />
		<use x="5.560668" y="1.1004" xlink:href="#EU-logo-star" />
		<use x="6.382594" y="1.88736" xlink:href="#EU-logo-star" />
		<use x="6.667743" y="2.99519" xlink:href="#EU-logo-star" />
		<use x="6.376961" y="4.10227" xlink:href="#EU-logo-star" />
		<use x="5.587047" y="4.8862" xlink:href="#EU-logo-star" />
		<use x="4.5007213" y="5.18118" xlink:href="#EU-logo-star" />
		<use x="3.384304" y="4.89019" xlink:href="#EU-logo-star" />
		<use x="2.5949396" y="4.10941" xlink:href="#EU-logo-star" />
		<use x="2.3322532" y="3.01024" xlink:href="#EU-logo-star" />
		<use x="2.5869707" y="1.9259" xlink:href="#EU-logo-star" />
		<use x="3.384304" y="1.1004" xlink:href="#EU-logo-star" />
	</g>
</svg>
