<svg xmlns="http://www.w3.org/2000/svg" xmlns:xlink="http://www.w3.org/1999/xlink" version="1.1" viewBox="0 0 75 110">
	<rect x="0" y="0" width="75" height="110" fill="white" stroke="#0091d2" stroke-width="0.35" />
	<g transform="translate(5,5)" fill="#0091d2">
		<path d="m 14,0 c -2.209139,0 -4,1.7908612 -4,4 l 0,17.75 -10,0 L 0,70 36,70 36,4 C 36,1.790861 34.209139,0 32,0 L 14,0 z m 0,1.25 18,0 c 1.518783,0 2.75,1.231217 2.75,2.75 l 0,19 0.90625,0 0,45.75 -35.3125,0 0,-45.75 10.90625,0 0,-19 c 0,-1.518783 1.231217,-2.75 2.75,-2.75 z" />
	</g>
	<g transform="translate(43.5,5)" fill="#0091d2">
		<path d="m 4,0 c -2.209139,0 -4,1.790861 -4,4 l 0,66 26,0 0,-66 c 0,-2.209139 -1.790861,-4 -4,-4 l -18,0 z m 0,1.25 18,0 c 1.518783,0 2.75,1.231217 2.75,2.75 l 0,19 0.90625,0 0,45.75 -25.3125,0 0,-45.75 0.90625,0 0,-19 c 0,-1.5187832 1.231217,-2.75 2.75,-2.75 z" />
	</g>
	<g transform="translate(15,77.25)" fill="#0091d2">
		<path d="m 4,0 c -2.209139,0 -4,1.790861 -4,4 l 0,16 c 0,2.209139 1.790861,4 4,4 l 50.5,0 0,-24 -28.5,0 -22,0 z m 22,0.34375 27.25,0 0,23.3125 -27.25,0 L 26,22.75 4,22.75 c -1.518783,0 -2.75,-1.231217 -2.75,-2.75 l 0,-16 c 0,-1.518783 1.231217,-2.75 2.75,-2.75 l 22,0 0,-0.90625 z" />
	</g>
	<g transform="translate(5,100)">
		<symbol id="EU-logo-star">
			<path d="m -0.4392187,-0.0986 0.3354006,0 0.1039066,-0.31897 0.1039066,0.31897 0.3352236,0 -0.271077,0.1972 0.1040841,0.31897 -0.2721374,-0.19722 -0.2716074,0.19722 0.1039067,-0.31897 z" fill="#ffed00" />
		</symbol>
		<rect x="0" y="0" width="9" height="6" fill="#004494" />
		<use x="4.5009274" y="0.81882" xlink:href="#EU-logo-star" />
		<use x="5.560668" y="1.1004" xlink:href="#EU-logo-star" />
		<use x="6.382594" y="1.88736" xlink:href="#EU-logo-star" />
		<use x="6.667743" y="2.99519" xlink:href="#EU-logo-star" />
		<use x="6.376961" y="4.10227" xlink:href="#EU-logo-star" />
		<use x="5.587047" y="4.8862" xlink:href="#EU-logo-star" />
		<use x="4.5007213" y="5.18118" xlink:href="#EU-logo-star" />
		<use x="3.384304" y="4.89019" xlink:href="#EU-logo-star" />
		<use x="2.5949396" y="4.10941" xlink:href="#EU-logo-star" />
		<use x="2.3322532" y="3.01024" xlink:href="#EU-logo-star" />
		<use x="2.5869707" y="1.9259" xlink:href="#EU-logo-star" />
		<use x="3.384304" y="1.1004" xlink:href="#EU-logo-star" />
	</g>
</svg>
